<mxfile host="app.diagrams.net" modified="2023-11-06T19:24:27.439Z" agent="Mozilla/5.0 (Windows NT 10.0; Win64; x64) AppleWebKit/537.36 (KHTML, like Gecko) Chrome/118.0.0.0 Safari/537.36" version="22.0.8" etag="GTmaeXu0_LYMnr8dy9AY" type="github">
  <diagram name="Seite-1" id="oOC0fEtql0pZzxCnuD9i">
    <mxGraphModel>
      <root>
        <mxCell id="0" />
        <mxCell id="1" parent="0" />
      </root>
    </mxGraphModel>
  </diagram>
</mxfile>
